<svg xmlns="http://www.w3.org/2000/svg" viewBox="0 0 192 192">
  <rect width="192" height="192" rx="36" fill="#7c3aed"/>
  <!-- Film strip left side -->
  <rect x="20" y="48" width="18" height="96" rx="4" fill="#a78bfa" opacity="0.5"/>
  <rect x="22" y="56" width="14" height="10" rx="2" fill="#0a0a0f"/>
  <rect x="22" y="74" width="14" height="10" rx="2" fill="#0a0a0f"/>
  <rect x="22" y="92" width="14" height="10" rx="2" fill="#0a0a0f"/>
  <rect x="22" y="110" width="14" height="10" rx="2" fill="#0a0a0f"/>
  <rect x="22" y="128" width="14" height="10" rx="2" fill="#0a0a0f"/>
  <!-- Film strip right side -->
  <rect x="154" y="48" width="18" height="96" rx="4" fill="#a78bfa" opacity="0.5"/>
  <rect x="156" y="56" width="14" height="10" rx="2" fill="#0a0a0f"/>
  <rect x="156" y="74" width="14" height="10" rx="2" fill="#0a0a0f"/>
  <rect x="156" y="92" width="14" height="10" rx="2" fill="#0a0a0f"/>
  <rect x="156" y="110" width="14" height="10" rx="2" fill="#0a0a0f"/>
  <rect x="156" y="128" width="14" height="10" rx="2" fill="#0a0a0f"/>
  <!-- Magnifying glass -->
  <circle cx="88" cy="90" r="32" fill="none" stroke="#e9d5ff" stroke-width="10"/>
  <line x1="110" y1="112" x2="130" y2="136" stroke="#e9d5ff" stroke-width="10" stroke-linecap="round"/>
  <!-- Bullet lines (notes) -->
  <circle cx="72" cy="84" r="4" fill="#fbbf24"/>
  <rect x="82" y="80" width="26" height="6" rx="3" fill="#fbbf24" opacity="0.7"/>
  <circle cx="72" cy="98" r="4" fill="#fbbf24"/>
  <rect x="82" y="94" width="20" height="6" rx="3" fill="#fbbf24" opacity="0.7"/>
</svg>
